# xmcd
#
# Track frame offsets: 
#        150
#        10344
#        15106
#        23783
#        34178
#        37830
#        54896
#
# Disc length: 937 seconds
#
# Revision: 0
# Processed by: cddbd v1.5.2PL0 Copyright (c) Steve Scherf et al.
# Submitted via: ExactAudioCopyFreeDBPlugin 1.0
#
DISCID=3d03a707
DTITLE=Richmond Fontaine - Clearcuts
DYEAR=2011
DGENRE=Americana
TTITLE0=The Mechanic Calls the Girl at Work
TTITLE1=Timber Tom
TTITLE2=The Girl Waits for the Kid to Come Home
TTITLE3=Let Me Dream on the High Country (demo)
TTITLE4=My Daddy Was a Logging Man
TTITLE5=Claude Waits Outside the Auto Parts Store
TTITLE6=See We Were in Love
EXTD=
EXTT0=
EXTT1=
EXTT2=
EXTT3=
EXTT4=
EXTT5=
EXTT6=
PLAYORDER=
